# xmcd CD database file
#
# Track frame offsets:
#	150
#	14140
#	27685
#	43697
#	58107
#	69722
#	81990
#	103665
#	117342
#	129810
#	142692
#	156625
#
# Disc length: 2323 seconds
#
# Revision: 0
# Processed by: cddbd v1.5.1PL0 Copyright (c) Steve Scherf et al.
# Submitted via: CDex 1.51
#
DISCID=ae09110c
DTITLE=Marie, Jeannie - Kiss on the Wind
DYEAR=2000
DGENRE=Country
TTITLE0=His Other Woman
TTITLE1=Easy From Now On
TTITLE2=I've Got Ramblin' Fever
TTITLE3=Without You
TTITLE4=I Love To Dance
TTITLE5=Missing That Feeling (The Puzzle Song)
TTITLE6=Green Fields of France
TTITLE7=You've Got A Lot of Nerve
TTITLE8=Kiss On The Wind
TTITLE9=Way Out There
TTITLE10=Keith's Song
TTITLE11=Forever Young
EXTD=YEAR: 2000
EXTT0=
EXTT1=
EXTT2=
EXTT3=
EXTT4=
EXTT5=
EXTT6=
EXTT7=
EXTT8=
EXTT9=
EXTT10=
EXTT11=
PLAYORDER=
